<svg width="103" height="103" viewBox="0 0 103 103" fill="none" xmlns="http://www.w3.org/2000/svg">
<path d="M18.9873 11.8832C26.827 5.44937 36.3674 1.51084 46.3833 0.505982C49.0494 0.238503 51.25 2.43629 51.25 5.15C51.25 7.8495 49.0486 10.032 46.332 10.3734C38.6083 11.3439 31.2758 14.4761 25.2044 19.4587C17.7915 25.5423 12.7173 34.0081 10.8464 43.4135C8.9756 52.8189 10.4238 62.5821 14.9444 71.0394C19.4649 79.4967 26.7781 86.125 35.6378 89.7948C44.4975 93.4646 54.3555 93.9489 63.5323 91.1652C72.709 88.3814 80.6367 82.5019 85.9644 74.5284C91.2922 66.5549 93.6904 56.9807 92.7504 47.4372C91.9806 39.6208 89.0105 32.2211 84.2352 26.0734C82.5557 23.9111 82.5424 20.8112 84.4512 18.9024C86.3701 16.9835 89.4802 16.9855 91.1763 19.0599C97.5481 26.8527 101.509 36.3837 102.503 46.4766C103.665 58.2765 100.7 70.1143 94.1128 79.973C87.5254 89.8317 77.7235 97.1013 66.3771 100.543C55.0307 103.985 42.8419 103.386 31.8875 98.8488C20.9331 94.3114 11.8909 86.116 6.30153 75.6591C0.712203 65.2022 -1.07842 53.1307 1.23475 41.5016C3.54793 29.8725 9.82179 19.4052 18.9873 11.8832Z" fill="url(#paint0_linear_14_3)" stroke="black" stroke-width="0.5"/>
<defs>
<linearGradient id="paint0_linear_14_3" x1="51.5" y1="0" x2="51.5" y2="103" gradientUnits="userSpaceOnUse">
<stop stop-color="#84407B"/>
<stop offset="0.515625" stop-color="#4ACABB"/>
<stop offset="0.953125" stop-color="#FCF9C2"/>
</linearGradient>
</defs>
</svg>
